#!OML:ASF H:\LiuWeirdWalks\Patient Classification 1\Patient 1\Session 1\male.ASF
:FULLY-SPECIFIED
:DEGREES
3409
root 1.10602 18.0552 -6.36399 6.98935 3.65125 5.21509
lowerback 14.5623 1.85879 6.46746
upperback 1.47677 4.56278 13.5072
thorax -7.32795 2.31049 10.278
lowerneck -23.9228 1.83023 9.04637
upperneck 17.8625 2.36858 -12.8595
head 9.89133 0.203832 -5.75052
rclavicle 1.43125e-014 1.04958e-013
rhumerus -43.4274 -15.8032 -40.058
rradius 46.0573
rwrist -20.736
rhand -17.6828 -2.77657
rfingers 7.12502
rthumb 8.57644 -32.5824
lclavicle 1.43125e-014 1.04958e-013
lhumerus -46.6552 -12.8217 97.2479
lradius 50.0334
lwrist 0.0123703
lhand 6.6662 -3.65334
lfingers 7.12502
lthumb 31.9579 23.561
rfemur 1.45064 -7.07051 8.78192
rtibia 29.136
rfoot -10.5664 -17.4292
rtoes -23.435
lfemur -24.658 2.12384 -27.5314
ltibia 15.2619
lfoot 0.0081451 13.5244
ltoes -14.1063
3410
root 1.16503 18.0411 -6.18735 6.74745 3.58322 5.52916
lowerback 14.5957 1.8239 6.21054
upperback 1.53863 4.46459 13.4443
thorax -7.27776 2.26896 10.3741
lowerneck -23.8472 1.8353 9.03423
upperneck 17.9674 2.39681 -12.8676
head 9.91845 0.21681 -5.7503
rclavicle -2.38542e-014 -6.36111e-015
rhumerus -43.9456 -15.9783 -39.6184
rradius 44.8703
rwrist -20.262
rhand -17.5496 -3.0693
rfingers 7.12502
rthumb 8.70502 -32.8698
lclavicle -2.38542e-014 -6.36111e-015
lhumerus -46.3233 -12.8914 97.0845
lradius 50.5926
lwrist 0.101592
lhand 6.60923 -3.39491
lfingers 7.12502
lthumb 31.9037 23.8303
rfemur 1.21518 -7.3711 7.89507
rtibia 31.176
rfoot -9.76293 -16.4574
rtoes -24.6055
lfemur -24.2901 1.98463 -27.9761
ltibia 16.0745
lfoot 0.630919 12.827
ltoes -12.7111
3411
root 1.22485 18.0301 -6.0114 6.53769 3.52826 5.9189
lowerback 14.6188 1.787 5.89076
upperback 1.58797 4.35348 13.3688
thorax -7.23663 2.22306 10.4961
lowerneck -23.7939 1.84318 9.00553
upperneck 18.0783 2.43449 -12.8788
head 9.95289 0.231888 -5.74767
rclavicle -2.38542e-014 -8.26944e-014
rhumerus -44.4563 -16.1731 -39.1414
rradius 43.6829
rwrist -19.7242
rhand -17.3822 -3.34363
rfingers 7.12502
rthumb 8.86658 -33.1374
lclavicle -2.38542e-014 -8.26944e-014
lhumerus -45.9688 -12.9093 96.9155
lradius 51.1712
lwrist 0.252609
lhand 6.56316 -3.04279
lfingers 7.12502
lthumb 31.8598 24.1912
rfemur 0.764499 -7.72177 6.89293
rtibia 33.4969
rfoot -8.72011 -15.3782
rtoes -25.7038
lfemur -23.9192 2.01736 -28.5557
ltibia 16.8393
lfoot 1.16512 12.1929
ltoes -11.1132
3412
root 1.28449 18.0208 -5.83677 6.36429 3.4939 6.38933
lowerback 14.6388 1.75118 5.50305
upperback 1.61694 4.23485 13.2775
thorax -7.21773 2.17578 10.6426
lowerneck -23.7598 1.85754 8.98596
upperneck 18.1912 2.48299 -12.9158
head 9.99358 0.249027 -5.75511
rclavicle 3.18055e-014 6.99722e-014
rhumerus -44.9721 -16.4273 -38.6039
rradius 42.4801
rwrist -19.1014
rhand -17.193 -3.59391
rfingers 7.12502
rthumb 9.04909 -33.3798
lclavicle 3.18055e-014 6.99722e-014
lhumerus -45.6036 -12.8964 96.7455
lradius 51.7539
lwrist 0.413915
lhand 6.47775 -2.66001
lfingers 7.12502
lthumb 31.7784 24.5901
rfemur 0.0883285 -8.13232 5.778
rtibia 36.0855
rfoot -7.3965 -14.2143
rtoes -26.545
lfemur -23.5327 2.19103 -29.2597
ltibia 17.5549
lfoot 1.47396 11.6144
ltoes -9.41843
3413
root 1.34274 18.0122 -5.66465 6.21977 3.468 6.90058
lowerback 14.6511 1.72162 5.0729
upperback 1.63781 4.11782 13.1819
thorax -7.20519 2.13075 10.81
lowerneck -23.7242 1.86952 8.96048
upperneck 18.2798 2.53072 -12.9629
head 10.0255 0.264327 -5.76438
rclavicle 0 -5.40694e-014
rhumerus -45.4962 -16.7408 -38.0111
rradius 41.281
rwrist -18.427
rhand -17.0005 -3.83407
rfingers 7.12502
rthumb 9.23488 -33.6118
lclavicle 0 -5.40694e-014
lhumerus -45.2281 -12.8556 96.5742
lradius 52.3287
lwrist 0.526407
lhand 6.28116 -2.31684
lfingers 7.12502
lthumb 31.5912 24.9702
rfemur -0.81351 -8.57315 4.61213
rtibia 38.8979
rfoot -5.72406 -13.0177
rtoes -26.953
lfemur -23.1226 2.48197 -30.0263
ltibia 18.2147
lfoot 1.52848 11.0695
ltoes -7.84248
3414
root 1.39929 18.0032 -5.49519 6.10527 3.44055 7.44805
lowerback 14.6625 1.70138 4.59675
upperback 1.64561 4.00724 13.079
thorax -7.20889 2.09063 10.9965
lowerneck -23.6883 1.89546 8.97006
upperneck 18.3462 2.59213 -13.045
head 10.0524 0.284581 -5.78982
rclavicle 1.43125e-014 6.36111e-014
rhumerus -46.0412 -17.0988 -37.3722
rradius 40.099
rwrist -17.7405
rhand -16.8126 -4.05424
rfingers 7.12502
rthumb 9.41619 -33.8239
lclavicle 1.43125e-014 6.36111e-014
lhumerus -44.854 -12.8016 96.3928
lradius 52.8866
lwrist 0.558408
lhand 5.88361 -2.12267
lfingers 7.12502
lthumb 31.2124 25.2381
rfemur -1.9262 -9.02879 3.4111
rtibia 41.8663
rfoot -3.69631 -11.8455
rtoes -26.9703
lfemur -22.6854 2.83607 -30.8311
ltibia 18.8087
lfoot 1.35276 10.554
ltoes -6.50674
3415
root 1.45417 17.994 -5.32884 6.01357 3.38342 7.98445
lowerback 14.6739 1.69522 4.10858
upperback 1.65419 3.91344 12.9793
thorax -7.21436 2.05916 11.1915
lowerneck -23.6726 1.92866 8.99252
upperneck 18.4283 2.65925 -13.1271
head 10.0896 0.307715 -5.81775
rclavicle -3.18055e-014 -7.63333e-014
rhumerus -46.5902 -17.5101 -36.7037
rradius 38.9393
rwrist -17.0422
rhand -16.6421 -4.26525
rfingers 7.12502
rthumb 9.58066 -34.0274
lclavicle -3.18055e-014 -7.63333e-014
lhumerus -44.4878 -12.7312 96.1892
lradius 53.4513
lwrist 0.477364
lhand 5.28369 -2.10318
lfingers 7.12502
lthumb 30.6405 25.3662
rfemur -3.23038 -9.45391 2.24303
rtibia 44.9079
rfoot -1.28361 -10.7628
rtoes -26.3521
lfemur -22.2259 3.22077 -31.6092
ltibia 19.3244
lfoot 1.00639 10.0843
ltoes -5.38419
3416
root 1.50719 17.9847 -5.165 5.92809 3.2756 8.48868
lowerback 14.6912 1.70828 3.61979
upperback 1.6751 3.84422 12.8855
thorax -7.21332 2.03945 11.3892
lowerneck -23.6681 1.9732 9.03331
upperneck 18.522 2.73484 -13.2035
head 10.1342 0.336388 -5.8462
rclavicle -6.36111e-015 -1.59028e-014
rhumerus -47.143 -17.9838 -36.0124
rradius 37.8036
rwrist -16.3221
rhand -16.4844 -4.45972
rfingers 7.12502
rthumb 9.73287 -34.2148
lclavicle -6.36111e-015 -1.59028e-014
lhumerus -44.1275 -12.6595 95.9543
lradius 54.0451
lwrist 0.32635
lhand 4.52602 -2.24417
lfingers 7.12502
lthumb 29.9178 25.358
rfemur -4.68142 -9.80401 1.14577
rtibia 47.9457
rfoot 1.45106 -9.80834
rtoes -25.2678
lfemur -21.7345 3.62693 -32.3351
ltibia 19.7498
lfoot 0.563193 9.66674
ltoes -4.57818
3417
root 1.55937 17.9759 -5.00249 5.83243 3.1135 8.9637
lowerback 14.7056 1.73316 3.14075
upperback 1.71867 3.78852 12.7935
thorax -7.18679 2.02481 11.5803
lowerneck -23.6556 2.01955 9.07013
upperneck 18.6046 2.80769 -13.2534
head 10.1725 0.366901 -5.8638
rclavicle -3.97569e-014 -9.85972e-014
rhumerus -47.6872 -18.4796 -35.3409
rradius 36.7273
rwrist -15.6562
rhand -16.3855 -4.69004
rfingers 7.12502
rthumb 9.82821 -34.4407
lclavicle -3.97569e-014 -9.85972e-014
lhumerus -43.7884 -12.588 95.6832
lradius 54.7224
lwrist 0.202081
lhand 3.74944 -2.40219
lfingers 7.12502
lthumb 29.1765 25.3311
rfemur -6.22172 -10.069 0.1175
rtibia 50.9137
rfoot 4.44177 -8.96466
rtoes -23.5027
lfemur -21.1875 4.01691 -33.0104
ltibia 20.0724
lfoot 0.0799167 9.36559
ltoes -4.08565
3418
root 1.61034 17.9682 -4.841 5.71553 2.90615 9.4079
lowerback 14.7315 1.76607 2.67592
upperback 1.78552 3.74385 12.7037
thorax -7.14181 2.01378 11.7631
lowerneck -23.6212 2.06783 9.11045
upperneck 18.6451 2.87903 -13.3001
head 10.1918 0.398282 -5.87877
rclavicle 4.45278e-014 4.45278e-014
rhumerus -48.2255 -19.0079 -34.6779
rradius 35.6943
rwrist -14.9599
rhand -16.2998 -4.86756
rfingers 7.12502
rthumb 9.91097 -34.6143
lclavicle 4.45278e-014 4.45278e-014
lhumerus -43.4693 -12.5331 95.3788
lradius 55.5083
lwrist 0.160891
lhand 3.0526 -2.50173
lfingers 7.12502
lthumb 28.5108 25.3451
rfemur -7.8051 -10.2435 -0.827062
rtibia 53.77
rfoot 7.61568 -8.21275
rtoes -21.0102
lfemur -20.5633 4.3642 -33.6309
ltibia 20.2764
lfoot -0.387686 9.2144
ltoes -3.83214
3419
root 1.66014 17.9619 -4.68044 5.57472 2.6637 9.86151
lowerback 14.7775 1.80593 2.19942
upperback 1.87296 3.70467 12.6005
thorax -7.08569 2.00411 11.936
lowerneck -23.5886 2.11054 9.12126
upperneck 18.6619 2.94311 -13.3155
head 10.2009 0.427852 -5.87684
rclavicle -3.33958e-014 -6.67916e-014
rhumerus -48.7686 -19.5176 -34.064
rradius 34.7578
rwrist -14.3513
rhand -16.251 -5.08616
rfingers 7.12502
rthumb 9.95803 -34.8306
lclavicle -3.33958e-014 -6.67916e-014
lhumerus -43.1686 -12.5025 95.0373
lradius 56.3875
lwrist 0.151972
lhand 2.42173 -2.58631
lfingers 7.12502
lthumb 27.9078 25.36
rfemur -9.39485 -10.3444 -1.73241
rtibia 56.4923
rfoot 10.8712 -7.52566
rtoes -17.6095
lfemur -19.8488 4.66066 -34.2439
ltibia 20.3498
lfoot -0.819194 9.19413
ltoes -3.78389
3420
root 1.70857 17.9566 -4.52008 5.40741 2.41498 10.3622
lowerback 14.847 1.84051 1.69016
upperback 1.97161 3.65182 12.472
thorax -7.02718 1.98707 12.1022
lowerneck -23.5337 2.14617 9.1257
upperneck 18.6475 2.99698 -13.3258
head 10.1933 0.453696 -5.87166
rclavicle -3.18055e-015 -5.40694e-014
rhumerus -49.309 -20.0423 -33.4705
rradius 33.8737
rwrist -13.7166
rhand -16.1946 -5.27493
rfingers 7.12502
rthumb 10.0124 -35.0168
lclavicle -3.18055e-015 -5.40694e-014
lhumerus -42.899 -12.496 94.657
lradius 57.3599
lwrist 0.166726
lhand 1.84509 -2.66255
lfingers 7.12502
lthumb 27.3564 25.3721
rfemur -10.9509 -10.4129 -2.64394
rtibia 59.0748
rfoot 13.9015 -6.95612
rtoes -13.9154
lfemur -19.0306 4.89757 -34.8916
ltibia 20.2877
lfoot -1.22342 9.25597
ltoes -3.8827
3421
root 1.75442 17.9524 -4.36062 5.22195 2.17845 10.8996
lowerback 14.9417 1.8675 1.15235
upperback 2.07628 3.58403 12.3242
thorax -6.97268 1.96235 12.2672
lowerneck -23.4782 2.18951 9.14075
upperneck 18.5936 3.05749 -13.3492
head 10.1729 0.482164 -5.87053
rclavicle -2.06736e-014 -1.145e-013
rhumerus -49.8514 -20.5552 -32.9081
rradius 33.0588
rwrist -13.0545
rhand -16.078 -5.37687
rfingers 7.12502
rthumb 10.1249 -35.1133
lclavicle -2.06736e-014 -1.145e-013
lhumerus -42.6419 -12.5121 94.2437
lradius 58.3915
lwrist 0.207623
lhand 1.33046 -2.71762
lfingers 7.12502
lthumb 26.8641 25.3938
rfemur -12.4698 -10.4749 -3.54045
rtibia 61.5195
rfoot 16.4974 -6.6064
rtoes -10.24
lfemur -18.1274 5.08675 -35.5625
ltibia 20.0967
lfoot -1.57956 9.36273
ltoes -4.07581
3422
root 1.79686 17.9489 -4.20218 5.04381 1.99008 11.4675
lowerback 15.0428 1.87716 0.593373
upperback 2.1662 3.49058 12.1617
thorax -6.93161 1.92553 12.4353
lowerneck -23.4041 2.21884 9.13384
upperneck 18.5203 3.10168 -13.357
head 10.1393 0.504006 -5.86099
rclavicle 1.43125e-014 3.18055e-014
rhumerus -50.396 -21.0296 -32.3908
rradius 32.3308
rwrist -12.4367
rhand -15.9528 -5.50691
rfingers 7.12502
rthumb 10.2457 -35.2374
lclavicle 1.43125e-014 3.18055e-014
lhumerus -42.4025 -12.5462 93.8051
lradius 59.4553
lwrist 0.296606
lhand 0.853777 -2.79527
lfingers 7.12502
lthumb 26.4079 25.3854
rfemur -13.9512 -10.5844 -4.4058
rtibia 63.8285
rfoot 18.4503 -6.60294
rtoes -7.11062
lfemur -17.178 5.23661 -36.2535
ltibia 19.8021
lfoot -1.88304 9.47507
ltoes -4.3594
3423
root 1.83517 17.9466 -4.04534 4.8994 1.86314 12.0126
lowerback 15.1419 1.86551 0.0516836
upperback 2.22906 3.37453 12.005
thorax -6.9123 1.8783 12.6073
lowerneck -23.3197 2.25492 9.15316
upperneck 18.4211 3.14963 -13.3864
head 10.0961 0.527567 -5.86235
rclavicle 1.27222e-014 3.49861e-014
rhumerus -50.9358 -21.4565 -31.9172
rradius 31.6848
rwrist -11.8743
rhand -15.797 -5.60217
rfingers 7.12502
rthumb 10.396 -35.3252
lclavicle 1.27222e-014 3.49861e-014
lhumerus -42.1739 -12.582 93.3473
lradius 60.5226
lwrist 0.383595
lhand 0.35533 -2.8999
lfingers 7.12502
lthumb 25.9307 25.3515
rfemur -15.4134 -10.7729 -5.16797
rtibia 65.9955
rfoot 19.5653 -6.95677
rtoes -4.69486
lfemur -16.2363 5.36553 -36.909
ltibia 19.4425
lfoot -2.13684 9.56252
ltoes -4.67189
